<?xml version="1.0" encoding="UTF-8"?>
<svg width="14px" height="14px" viewBox="0 0 14 14" version="1.1" xmlns="http://www.w3.org/2000/svg" xmlns:xlink="http://www.w3.org/1999/xlink">
    <!-- Generator: Sketch 52.2 (67145) - http://www.bohemiancoding.com/sketch -->
    <title>icon_keydistrict</title>
    <desc>Created with Sketch.</desc>
    <g id="页面-1" stroke="none" stroke-width="1" fill="none" fill-rule="evenodd">
        <g id="关键字样式" transform="translate(-80.000000, -320.000000)">
            <g id="分组" transform="translate(68.000000, 68.000000)">
                <g id="icon_keydistrict-2" transform="translate(12.000000, 252.000000)">
                    <g id="icon_keydistrict" transform="translate(2.000000, 0.000000)">
                        <path d="M5.22360887,13.9178864 C5.22360887,13.9178864 0.00898521094,8.11315524 0.00898521094,5.22283265 C0.00898521094,2.34455308 2.34532929,0.00820899479 5.22360887,0.00820901302 C8.10188845,0.00820903125 10.4382325,2.34455309 10.4382325,5.22283265 C10.4382325,8.11315524 5.22360887,13.9178864 5.22360887,13.9178864 Z" id="形状" fill="#041E5B" fill-rule="nonzero"></path>
                        <path d="M3.36898521,7.25810148 L7.09027554,7.25810148 C7.33113575,7.25810148 7.52382393,7.0654133 7.52382393,6.82455309 C7.52382393,6.58369288 7.33113575,6.3910047 7.09027554,6.3910047 L3.36898521,6.3910047 C3.128125,6.3910047 2.93543682,6.58369288 2.93543682,6.82455309 C2.93543682,7.0654133 3.128125,7.25810148 3.36898521,7.25810148" id="路径" fill="#FFFFFF"></path>
                        <path d="M4.23608199,8.99229503 L6.21113575,8.99229503 C6.45199596,8.99229503 6.64468414,8.79960685 6.64468414,8.55874664 C6.64468414,8.31788643 6.45199596,8.12519825 6.21113575,8.12519825 L4.23608199,8.12519825 C3.99522178,8.12519825 3.8025336,8.31788643 3.8025336,8.55874664 C3.8025336,8.79960685 3.99522178,8.99229503 4.23608199,8.99229503" id="路径" fill="#FFFFFF"></path>
                        <polygon id="路径" fill="#FFFFFF" points="6.56038307 5.62025202 5.29586693 4.71702622 4.05543682 5.63229503 4.52511425 4.1510047 3.26059812 3.2477789 4.81414651 3.2477789 5.28382393 1.76648857 5.76554435 3.2477789 7.31909274 3.23573589 6.06661962 4.1510047"></polygon>
                    </g>
                </g>
            </g>
        </g>
    </g>
</svg>