<?xml version="1.0" encoding="UTF-8"?>
<svg width="14px" height="14px" viewBox="0 0 14 14" version="1.1" xmlns="http://www.w3.org/2000/svg" xmlns:xlink="http://www.w3.org/1999/xlink">
    <!-- Generator: Sketch 52.2 (67145) - http://www.bohemiancoding.com/sketch -->
    <title>icon_keymetro</title>
    <desc>Created with Sketch.</desc>
    <g id="页面-1" stroke="none" stroke-width="1" fill="none" fill-rule="evenodd">
        <g id="关键字样式" transform="translate(-785.000000, -360.000000)" fill="#041E5B" fill-rule="nonzero">
            <g id="icon_keymetro-2" transform="translate(785.000000, 360.000000)">
                <g id="icon_keymetro" transform="translate(1.000000, 1.000000)">
                    <path d="M11.9538976,11.3904063 L10.8355293,10.5096976 L10.8355293,1.9727265 C10.8355293,0.820930913 10.0858001,0.00265625 9.03027986,0.00265625 L3.01228747,0.00265625 C1.95676718,0.00265625 1.20703798,0.820930913 1.20703798,1.9727265 L1.20703798,10.5095358 L0.116536259,11.3902446 C-0.0342100031,11.5547406 -0.0342100031,11.7192366 0.116536259,11.8838944 C0.116536259,11.9662232 0.191983504,11.9662232 0.267430748,11.9662232 C0.342729766,11.9662232 0.418177011,11.9662232 0.493624255,11.8838944 L2.41063646,10.5095358 C2.44487676,10.5282984 3.17874573,10.490935 9.63207909,10.5095358 L11.4263598,11.8838944 C11.5018071,11.9662232 11.5771061,11.9662232 11.6525533,11.9662232 C11.7280006,11.9662232 11.8032996,11.9662232 11.8787468,11.8838944 C12.0293449,11.7193984 12.0293449,11.5549023 11.9538976,11.3904063 Z M2.98012234,9.08665341 C2.5275871,9.08665341 2.22609457,8.67517076 2.22609457,8.26384985 C2.22609457,7.77020006 2.60318257,7.44104629 2.98012234,7.44104629 C3.43250935,7.44104629 3.73400188,7.8523672 3.73400188,8.26384985 C3.80944912,8.75749964 3.43250935,9.08665341 2.98012234,9.08665341 Z M4.11108987,6.20692182 C3.05542136,6.20692182 2.22609457,6.04080834 2.22609457,5.05350877 L2.22609457,2.91295789 C2.22579812,1.92582007 3.01050875,1.30018528 3.93188414,1.30843434 C4.03519795,1.36229587 7.82653315,1.31619816 8.44923231,1.32897612 C8.92029586,1.31684515 9.76963321,2.00782545 9.76859562,2.91295789 L9.76859562,4.47930931 C9.76859562,5.38428001 8.93926884,6.20708357 7.88374855,6.20708357 L4.11108987,6.20708357 L4.11108987,6.20692182 Z M9.09016333,9.08665341 C8.63762809,9.08665341 8.33613556,8.67517076 8.33613556,8.26384985 C8.33613556,7.77020006 8.71322356,7.44104629 9.09016333,7.44104629 C9.54240211,7.44104629 9.84404286,7.8523672 9.84404286,8.26384985 C9.84419109,8.75749964 9.54255034,9.08665341 9.09016333,9.08665341 Z" id="形状"></path>
                </g>
            </g>
        </g>
    </g>
</svg>