<?xml version="1.0" encoding="UTF-8"?>
<svg width="14px" height="14px" viewBox="0 0 14 14" version="1.1" xmlns="http://www.w3.org/2000/svg" xmlns:xlink="http://www.w3.org/1999/xlink">
    <!-- Generator: Sketch 52.2 (67145) - http://www.bohemiancoding.com/sketch -->
    <title>icon_keybusiness</title>
    <desc>Created with Sketch.</desc>
    <g id="页面-1" stroke="none" stroke-width="1" fill="none" fill-rule="evenodd">
        <g id="关键字样式" transform="translate(-80.000000, -466.000000)" fill="#041E5B">
            <g id="分组" transform="translate(68.000000, 68.000000)">
                <g id="icon_keybusiness-2" transform="translate(12.000000, 398.000000)">
                    <g id="icon_keybusiness" transform="translate(2.000000, 1.000000)">
                        <path d="M6.81876194,3.54557026 L6.81876194,2.83931429 C6.81876194,2.05919586 6.18636843,1.42680235 5.40625,1.42680235 C4.62613157,1.42680235 3.99373806,2.05919586 3.99373806,2.83931429 L3.99373806,3.54557026 L2.58121761,3.54557026 L2.58122611,2.83931429 C2.5774383,1.27907743 3.83912619,0.0110191083 5.39936306,0.00723128981 C6.95959992,0.00344347134 8.22765824,1.26513137 8.23144606,2.82536823 L8.23144606,3.54557026 L6.81876194,3.54557026 Z M6.81876194,3.54557026 L6.81876194,2.83931429 C6.81876194,2.05919586 6.18636843,1.42680235 5.40625,1.42680235 C4.62613157,1.42680235 3.99373806,2.05919586 3.99373806,2.83931429 L3.99373806,3.54557026 L2.58121761,3.54557026 L2.58122611,2.83931429 C2.5774383,1.27907743 3.83912619,0.0110191083 5.39936306,0.00723128981 C6.95959992,0.00344347134 8.22765824,1.26513137 8.23144606,2.82536823 L8.23144606,3.54557026 L6.81876194,3.54557026 Z" id="形状" fill-rule="nonzero"></path>
                        <path d="M1.76684514,3.54557026 L9.04565486,3.54557026 C9.39086286,3.54557026 9.685624,3.79522193 9.74226911,4.13578125 L10.7823696,10.3762122 C10.9106389,11.1456559 10.3908469,11.8734335 9.62140326,12.0017028 C9.54461385,12.0144437 9.46696357,12.0209863 9.38914112,12.0209863 L1.42335888,12.0209863 C0.643240446,12.0209863 0.0108469347,11.3884206 0.0108469347,10.6083021 C0.0108469347,10.5304797 0.0172173567,10.4528294 0.0301303742,10.3762122 L1.07023089,4.13578125 C1.126876,3.79522193 1.42163714,3.54574244 1.76684514,3.54557026 Z" id="路径"></path>
                    </g>
                </g>
            </g>
        </g>
    </g>
</svg>