<?xml version="1.0" encoding="UTF-8"?>
<svg width="14px" height="14px" viewBox="0 0 14 14" version="1.1" xmlns="http://www.w3.org/2000/svg" xmlns:xlink="http://www.w3.org/1999/xlink">
    <!-- Generator: Sketch 52.2 (67145) - http://www.bohemiancoding.com/sketch -->
    <title>icon_keyairport</title>
    <desc>Created with Sketch.</desc>
    <g id="页面-1" stroke="none" stroke-width="1" fill="none" fill-rule="evenodd">
        <g id="关键字样式" transform="translate(-751.000000, -360.000000)" fill="#041E5B">
            <g id="icon_keyairport-2" transform="translate(751.000000, 360.000000)">
                <g id="icon_keyairport">
                    <path d="M11.3808776,6.45476397 C10.7825963,6.68163838 4.69937749,8.89072293 4.69937749,8.89072293 C4.69937749,8.89072293 3.01500247,9.59823499 1.76900245,7.69080938 L3.15193997,6.96957282 C3.39234622,7.07180635 3.61612747,7.0631235 3.91318998,6.94352427 L5.485565,6.45476397 L3.12700247,2.07132625 C3.12700247,2.07132625 2.64903371,1.11957408 4.30562748,1.58424649 C4.30562748,1.58424649 7.30250252,4.46415107 7.84259628,4.99296451 C7.84259628,4.99296451 8.11887753,5.19070937 8.62878379,4.99296451 L10.9871276,4.01852491 C10.9871276,4.01852491 12.5844401,3.40652418 12.9519401,4.50588475 C13.3386901,5.65874288 11.9778463,6.22760946 11.3808776,6.45476397 Z M1.5036587,7.33901399 C0.88743994,6.47549076 0.769971189,5.96740412 0.769971189,5.96740412 C0.769971189,5.96740412 0.89706494,4.91145778 1.9485962,5.96740412 C2.25528371,6.27606535 2.58122121,6.48753471 2.78859621,6.66091158 L1.5036587,7.3387339 L1.5036587,7.33901399 Z" id="形状" fill-rule="nonzero" transform="translate(6.894996, 5.237743) rotate(-15.000000) translate(-6.894996, -5.237743) "></path>
                    <rect id="矩形" x="1" y="11" width="11.9" height="1.55555556" rx="0.777777778"></rect>
                </g>
            </g>
        </g>
    </g>
</svg>