<?xml version="1.0" encoding="UTF-8"?>
<svg width="14px" height="14px" viewBox="0 0 14 14" version="1.1" xmlns="http://www.w3.org/2000/svg" xmlns:xlink="http://www.w3.org/1999/xlink">
    <!-- Generator: Sketch 52.2 (67145) - http://www.bohemiancoding.com/sketch -->
    <title>icon_keybrand</title>
    <desc>Created with Sketch.</desc>
    <g id="页面-1" stroke="none" stroke-width="1" fill="none" fill-rule="evenodd">
        <g id="关键字样式" transform="translate(-80.000000, -174.000000)" fill="#041E5B">
            <g id="分组" transform="translate(68.000000, 68.000000)">
                <g id="icon_keybrand-2" transform="translate(12.000000, 106.000000)">
                    <g id="icon_keybrand" transform="translate(0.000000, 1.000000)">
                        <path d="M13.9804,2.97266667 C13.9262667,2.5956 13.7256,2.3156 13.3774667,2.1532 C13.0629333,2.00573333 12.726,1.9684 12.3853333,2.00853333 C11.9942667,2.0552 11.6974667,2.25493333 11.5434667,2.6264 C11.4109333,2.9428 11.3941333,3.27506667 11.4566667,3.61106667 C11.4977333,3.82573333 11.6004,4.0096 11.7814667,4.14213333 C11.7908,4.14866667 11.7964,4.158 11.8048,4.16733333 C11.1449333,4.88786667 10.4888,5.60466667 9.82053333,6.3336 C9.6124,5.02413333 9.408,3.7296 9.20266667,2.43973333 C9.31466667,2.3912 9.42293333,2.35293333 9.52373333,2.30066667 C9.99506667,2.05613333 10.2881333,1.69213333 10.2732,1.13773333 C10.2601333,0.690666667 10.0604,0.349066667 9.646,0.161466667 C9.24466667,-0.0196 8.82746667,-0.0401333333 8.4084,0.1008 C8.036,0.224 7.78493333,0.471333333 7.69253333,0.857733333 C7.61693333,1.17693333 7.65986667,1.48586667 7.8008,1.77986667 C7.88293333,1.94973333 8.00613333,2.08226667 8.1732,2.17093333 C8.21706667,2.19333333 8.2628,2.212 8.30946667,2.23346667 C7.812,3.2368 7.31733333,4.23173333 6.8152,5.24253333 C6.44186667,4.22986667 6.0732,3.23493333 5.70546667,2.24 C5.95186667,2.12053333 6.01066667,2.08693333 6.09186667,1.96746667 C6.33546667,1.61186667 6.39986667,1.2208 6.2804,0.810133333 C6.1684,0.424666667 5.91546667,0.164266667 5.52066667,0.0634666667 C5.1296,-0.0345333333 4.74226667,-0.0084 4.3708,0.147466667 C4.02546667,0.293066667 3.8108,0.552533333 3.75666667,0.928666667 C3.70906667,1.25533333 3.7828,1.56146667 3.92466667,1.85266667 C4.03386667,2.07666667 4.19533333,2.2568 4.42866667,2.3548 C4.5416,2.4024 4.66293333,2.4276 4.79266667,2.4668 C4.5164,3.73986667 4.23826667,5.01946667 3.95733333,6.3168 C3.37213333,5.59066667 2.8,4.87946667 2.23533333,4.17946667 C2.30253333,4.10106667 2.37626667,4.03666667 2.4248,3.9564 C2.6012,3.66333333 2.64786667,3.34506667 2.562,3.0128 C2.4556,2.60213333 2.23346667,2.2792 1.83213333,2.10746667 C1.55773333,1.98986667 1.26653333,1.97026667 0.9772,2.01693333 C0.536666667,2.08786667 0.2268,2.32773333 0.084,2.7608 C-0.00746666667,3.038 -0.0196,3.32453333 0.0270666667,3.60826667 C0.0998666667,4.04693333 0.331333333,4.36706667 0.763466667,4.52013333 C0.9828,4.59666667 1.21053333,4.61906667 1.44013333,4.60226667 C1.51946667,4.59666667 1.5428,4.6228 1.5652,4.69186667 C1.90866667,5.80533333 2.25586667,6.91786667 2.60026667,8.03133333 C2.61986667,8.0948 2.64506667,8.1144 2.71133333,8.1144 C5.5552,8.11253333 8.39813333,8.11253333 11.242,8.1144 C11.312,8.1144 11.3381333,8.09386667 11.3586667,8.0276 C11.7096,6.89733333 12.0633333,5.76706667 12.4152,4.6368 C12.4348,4.57706667 12.4590667,4.5668 12.5206667,4.5696 C12.6821333,4.57613333 12.8473333,4.5864 13.006,4.56306667 C13.3728,4.50893333 13.6649333,4.33066667 13.8329333,3.98813333 C13.9888,3.66706667 14.0298667,3.3236 13.9804,2.97266667 Z" id="路径"></path>
                        <path d="M2.63293333,10.4944 C5.5384,10.4944 8.4392,10.4944 11.34,10.4944 C11.34,9.84573333 11.34,9.20173333 11.34,8.5568 C8.43546667,8.5568 5.5356,8.5568 2.63293333,8.5568 C2.63293333,9.2036 2.63293333,9.84853333 2.63293333,10.4944 Z" id="路径"></path>
                    </g>
                </g>
            </g>
        </g>
    </g>
</svg>