<?xml version="1.0" encoding="UTF-8"?>
<svg width="14px" height="14px" viewBox="0 0 14 14" version="1.1" xmlns="http://www.w3.org/2000/svg" xmlns:xlink="http://www.w3.org/1999/xlink">
    <!-- Generator: Sketch 52.2 (67145) - http://www.bohemiancoding.com/sketch -->
    <title>icon_keylandmark</title>
    <desc>Created with Sketch.</desc>
    <g id="页面-1" stroke="none" stroke-width="1" fill="none" fill-rule="evenodd">
        <g id="关键字样式" transform="translate(-801.000000, -360.000000)" fill="#041E5B" fill-rule="nonzero">
            <g id="icon_keylandmark-2" transform="translate(801.000000, 360.000000)">
                <g id="icon_keylandmark" transform="translate(2.000000, 1.000000)">
                    <path d="M4.98333333,0 C2.23513333,0 0,2.23166667 0,4.97466667 C0,5.993 0.3068,6.9732 0.880533333,7.79783333 C0.909133333,7.84723333 0.938166667,7.8949 0.9724,7.94126667 L4.6098,12.7278667 C4.7086,12.8375 4.8412,12.8981667 4.98333333,12.8981667 C5.12373333,12.8981667 5.2572,12.8370667 5.3729,12.7075 L8.9934,7.94083333 C9.02893333,7.89316667 9.0597,7.84116667 9.07616667,7.81083333 C9.65710257,6.97927151 9.96801149,5.98905307 9.96666667,4.97466667 C9.96666667,2.23166667 7.7311,0 4.98333333,0 Z M4.98333333,6.7535 C4.00157355,6.75302461 3.20534972,5.95815755 3.2032,4.9764 C3.2292627,4.01210955 4.01847407,3.24394065 4.98311667,3.24394065 C5.94775926,3.24394065 6.73697064,4.01210955 6.76303333,4.9764 C6.7606457,5.95781924 5.96475522,6.7523532 4.98333333,6.75306667 L4.98333333,6.7535 Z" id="形状"></path>
                </g>
            </g>
        </g>
    </g>
</svg>