<?xml version="1.0" encoding="UTF-8"?>
<svg width="20px" height="20px" viewBox="0 0 20 20" version="1.1" xmlns="http://www.w3.org/2000/svg" xmlns:xlink="http://www.w3.org/1999/xlink">
    <!-- Generator: Sketch 52.2 (67145) - http://www.bohemiancoding.com/sketch -->
    <title>icon_cha</title>
    <desc>Created with Sketch.</desc>
    <g id="页面-1" stroke="none" stroke-width="1" fill="none" fill-rule="evenodd">
        <g id="临近起飞" transform="translate(-1230.000000, -351.000000)" fill="#666666">
            <g id="分组-3" transform="translate(640.000000, 335.000000)">
                <g id="icon_cha-2" transform="translate(590.000000, 16.000000)">
                    <path d="M11.6717763,10.2218254 L18.9393994,17.4894485 C19.3299237,17.8799728 19.3299237,18.5131378 18.9393994,18.9036621 L18.9036621,18.9393994 C18.5131378,19.3299237 17.8799728,19.3299237 17.4894485,18.9393994 L10.2218254,11.6717763 L2.95420229,18.9393994 C2.563678,19.3299237 1.93051302,19.3299237 1.53998873,18.9393994 L1.5042514,18.9036621 C1.11372711,18.5131378 1.11372711,17.8799728 1.5042514,17.4894485 L8.77187452,10.2218254 L1.5042514,2.95420229 C1.11372711,2.563678 1.11372711,1.93051302 1.5042514,1.53998873 L1.53998873,1.5042514 C1.93051302,1.11372711 2.563678,1.11372711 2.95420229,1.5042514 L10.2218254,8.77187452 L17.4894485,1.5042514 C17.8799728,1.11372711 18.5131378,1.11372711 18.9036621,1.5042514 L18.9393994,1.53998873 C19.3299237,1.93051302 19.3299237,2.563678 18.9393994,2.95420229 L11.6717763,10.2218254 Z" id="icon_cha"></path>
                </g>
            </g>
        </g>
    </g>
</svg>